# xmcd CD database file
# Copyright (C) 1993-1996 Ti Kan
#
# Track frame offsets:
# 150
# 31965
# 53390
# 91790
# 101165
# 109037
# 118997
# 131175
# 139040
# 158627
# 205072
# 205535
# 211795
# 217667
# 229227
# 254670
# 275962
#
# Disc length: 3992 seconds
# Revision: 0
# Processed by: cddbd v1.4b41PL1 Copyright (c) Steve Scherf et al.
# Submitted via: CDSpectrumPro v3.2.327
#
DISCID=f30f9611
DTITLE=Art of Noise - Daft
DYEAR=1900
DGENRE=
TTITLE0=Love
TTITLE1=A Time For Fear (Who's Afraid)
TTITLE2=Beatbox (Diversion 1)
TTITLE3=The Army Now
TTITLE4=Donna
TTITLE5=Momento
TTITLE6=How To Kill
TTITLE7=Realisation
TTITLE8=Who's Afraid (Of The Art Of Noise)
TTITLE9=Moments In Love
TTITLE10=Bright Noise
TTITLE11=Flesh In Armour
TTITLE12=Comes And Goes
TTITLE13=Snapshot
TTITLE14=Close (To The Edit)
TTITLE15=(Three Fingers Of) Love
TTITLE16=Close Up (Hop)
EXTD=Japanese Release of the Zang Tumb Tumb compilation WCPR-19
EXTT0=
EXTT1=
EXTT2=
EXTT3=
EXTT4=
EXTT5=
EXTT6=
EXTT7=
EXTT8=
EXTT9=
EXTT10=
EXTT11=
EXTT12=
EXTT13=
EXTT14=
EXTT15=
EXTT16=
PLAYORDER=
